<svg width="27" height="27" viewBox="0 0 27 27" fill="none" xmlns="http://www.w3.org/2000/svg">
<g clip-path="url(#clip0)">
<path d="M25.5158 1.48522C24.5259 0.495134 23.3334 0 21.939 0H5.06383C3.66942 0 2.47684 0.495134 1.48657 1.48522C0.496492 2.47548 0.00135803 3.668 0.00135803 5.06247V21.9374C0.00135803 23.3317 0.496492 24.5244 1.48657 25.5146C2.47684 26.5049 3.66942 27 5.06383 27H21.9388C23.3332 27 24.5258 26.5049 25.5156 25.5146C26.5059 24.5244 27.001 23.3318 27.001 21.9374V5.06247C27.0009 3.668 26.5058 2.4753 25.5158 1.48522ZM22.8357 9.79086L12.0423 20.5838C11.8197 20.8063 11.556 20.918 11.2512 20.918C10.9464 20.918 10.6827 20.8068 10.46 20.5842L4.16708 14.2911C3.94445 14.0683 3.83313 13.8049 3.83313 13.5001C3.83313 13.1954 3.94451 12.9317 4.16708 12.7091L5.9602 10.916C6.1829 10.6934 6.44629 10.5821 6.75117 10.5821C7.05606 10.5821 7.31976 10.6935 7.54239 10.916L11.2514 14.6249L19.4606 6.4158C19.6826 6.19311 19.9468 6.08186 20.2515 6.08186C20.556 6.08186 20.8196 6.19311 21.0425 6.4158L22.8358 8.20898C23.058 8.43155 23.1695 8.69525 23.1695 8.99995C23.1695 9.30466 23.058 9.56842 22.8357 9.79086Z" fill="black"/>
</g>
<defs>
<clipPath id="clip0">
<rect width="27" height="27" fill="white"/>
</clipPath>
</defs>
</svg>
