<svg width="104" height="104" viewBox="0 0 104 104" fill="none" xmlns="http://www.w3.org/2000/svg">
<path d="M101.453 12.9461C99.7558 11.2491 97.7165 10.4006 95.3323 10.4006H8.6666C6.28334 10.4006 4.24366 11.2489 2.54547 12.9461C0.848238 14.6435 0 16.6832 0 19.0667V84.9324C0 87.3164 0.848238 89.3562 2.54547 91.0535C4.24366 92.7507 6.28334 93.5993 8.6666 93.5993H95.3336C97.7165 93.5993 99.7563 92.7507 101.454 91.0535C103.151 89.3564 104 87.3166 104 84.9324V19.0667C104 16.6832 103.151 14.6435 101.453 12.9461ZM97.0652 84.9324C97.0652 85.4025 96.8946 85.8075 96.5516 86.1517C96.2082 86.4932 95.8018 86.6645 95.3323 86.6645H8.6666C8.19743 86.6645 7.79104 86.4932 7.44803 86.1517C7.10521 85.8077 6.93351 85.4025 6.93351 84.9324V19.0659C6.93351 18.5965 7.10464 18.1911 7.44803 17.8473C7.79123 17.5053 8.19761 17.3336 8.6666 17.3336H95.3336C95.8024 17.3336 96.2088 17.5053 96.5516 17.8473C96.8933 18.1911 97.0652 18.5965 97.0652 19.0659V84.9324Z" fill="black"/>
<path d="M24.2671 45.0663C27.1564 45.0663 29.6117 44.0557 31.6341 42.0332C33.656 40.0108 34.6672 37.5557 34.6672 34.6672C34.6672 31.7777 33.6554 29.3226 31.6341 27.3C29.6117 25.2783 27.1562 24.2671 24.2671 24.2671C21.3782 24.2671 18.9231 25.2783 16.9007 27.3C14.879 29.3224 13.8678 31.7775 13.8678 34.6672C13.8678 37.5557 14.8784 40.0114 16.9007 42.0332C18.9231 44.0551 21.3782 45.0663 24.2671 45.0663Z" fill="black"/>
<path d="M39.8667 60.6658L31.1999 52L13.8671 69.3326V79.7331H90.1332V55.4665L67.6002 32.9329L39.8667 60.6658Z" fill="black"/>
</svg>
