<svg width="32" height="28" viewBox="0 0 32 28" fill="none" xmlns="http://www.w3.org/2000/svg">
<path d="M26.7082 15.3275C26.6314 15.2888 26.5544 15.2694 26.4768 15.2694C26.3098 15.2694 26.1627 15.3335 26.0345 15.462L24.8029 16.6934C24.6878 16.809 24.63 16.9499 24.63 17.1169V22.004C24.63 22.8508 24.3292 23.5753 23.7258 24.1785C23.123 24.7813 22.398 25.0828 21.5513 25.0828H5.54177C4.695 25.0828 3.97014 24.7813 3.36728 24.1785C2.76428 23.5753 2.46295 22.8509 2.46295 22.004V5.99479C2.46295 5.14815 2.76428 4.42337 3.36728 3.8203C3.97014 3.21737 4.695 2.91598 5.54177 2.91598H21.5515C21.8337 2.91598 22.1223 2.95446 22.4173 3.03149C22.4944 3.05697 22.552 3.06998 22.5901 3.06998C22.7571 3.06998 22.9047 3.00602 23.0329 2.87776L23.9757 1.93488C24.1295 1.78115 24.1875 1.595 24.1487 1.37711C24.1102 1.17182 23.9946 1.02422 23.8022 0.934514C23.1099 0.614245 22.3591 0.453369 21.5509 0.453369H5.54177C4.01523 0.453369 2.70989 0.995373 1.62588 2.07938C0.542005 3.16352 0 4.46866 0 5.99526V22.0049C0 23.5312 0.542005 24.8365 1.62595 25.9205C2.70996 27.0048 4.0153 27.5468 5.54184 27.5468H21.5513C23.0777 27.5468 24.3832 27.0048 25.4672 25.9205C26.5512 24.8365 27.0937 23.5313 27.0937 22.0049V15.8855C27.0936 15.6163 26.9647 15.4304 26.7082 15.3275Z" fill="black"/>
<path d="M31.5383 4.28245L29.4215 2.16559C29.1136 1.85779 28.7478 1.70386 28.3243 1.70386C27.9014 1.70386 27.5353 1.85779 27.2277 2.16559L14.7778 14.6154L9.71735 9.55469C9.40942 9.24669 9.04372 9.09296 8.62054 9.09296C8.19729 9.09296 7.83173 9.24669 7.52372 9.55469L5.40713 11.6713C5.09926 11.9792 4.94519 12.3448 4.94519 12.7683C4.94519 13.1916 5.09926 13.5571 5.40713 13.8651L13.6812 22.1392C13.9892 22.4473 14.3549 22.6009 14.778 22.6009C15.2012 22.6009 15.5669 22.4473 15.8749 22.1392L31.5381 6.47601C31.8458 6.16821 32.0001 5.80245 32.0001 5.3792C32.0001 4.95595 31.8462 4.59025 31.5383 4.28245Z" fill="black"/>
</svg>
