<svg width="104" height="104" viewBox="0 0 104 104" fill="none" xmlns="http://www.w3.org/2000/svg">
<path d="M102.97 18.3632C102.285 17.677 101.472 17.3338 100.533 17.3338H3.46694C2.52821 17.3338 1.71526 17.677 1.02904 18.3632C0.343583 19.0493 0 19.8616 0 20.8002V83.1993C0 84.138 0.343583 84.9508 1.02904 85.6366C1.71526 86.3221 2.52821 86.6662 3.46694 86.6662H100.533C101.472 86.6662 102.284 86.3223 102.97 85.6366C103.656 84.951 104 84.1382 104 83.1993V20.8002C104 19.8616 103.656 19.0498 102.97 18.3632ZM97.0659 65.8668C93.2377 65.8668 89.971 67.2213 87.2614 69.9286C84.5529 72.6361 83.1991 75.9042 83.1991 79.7322H20.7998C20.7998 75.9042 19.4457 72.6361 16.7377 69.9286C14.0294 67.2199 10.7617 65.8668 6.93332 65.8668V38.1334C10.7617 38.1334 14.0292 36.779 16.7377 34.0713C19.4457 31.3632 20.7998 28.0949 20.7998 24.2669H83.2004C83.2004 28.0949 84.5535 31.3632 87.2621 34.0713C89.9708 36.779 93.2377 38.1334 97.0659 38.1334V65.8668Z" fill="black"/>
<path d="M64.9721 37.051C63.5821 34.8117 61.7492 32.988 59.4742 31.5801C57.1993 30.1718 54.7081 29.4677 51.9994 29.4677C49.2908 29.4677 46.7998 30.1718 44.5247 31.5801C42.2497 32.988 40.4168 34.8117 39.0266 37.051C37.6357 39.2893 36.5619 41.7086 35.8036 44.3089C35.0449 46.9089 34.666 49.4733 34.666 52.0004C34.666 54.5269 35.0449 57.0915 35.8036 59.6911C36.5619 62.2906 37.6357 64.711 39.0266 66.9497C40.417 69.1898 42.2497 71.012 44.5247 72.4203C46.8 73.8294 49.2908 74.5338 51.9994 74.5338C54.7081 74.5338 57.1993 73.8294 59.4742 72.4203C61.7492 71.012 63.5821 69.189 64.9721 66.9497C66.3628 64.711 67.4366 62.2906 68.1949 59.6911C68.9546 57.0915 69.3323 54.5269 69.3323 52.0004C69.3323 49.4735 68.9546 46.909 68.1949 44.3089C67.4366 41.7086 66.3628 39.2893 64.9721 37.051ZM62.3997 65.8668H41.5994V60.6664H48.5317V45.0667H48.4232C47.9539 45.7889 46.9611 46.8186 45.4448 48.1542L41.2744 43.8212L49.2906 36.4003H55.4662V60.6664H62.3997V65.8668Z" fill="black"/>
</svg>
