<svg width="82" height="104" viewBox="0 0 82 104" fill="none" xmlns="http://www.w3.org/2000/svg">
<path d="M20.8024 71.4127C22.5433 73.9072 24.7395 76.2781 27.3894 78.5216C30.0399 80.765 32.7183 82.6995 35.4276 84.3245C38.1364 85.9503 41.2317 87.5552 44.7136 89.1426L44.6553 89.0842L44.8876 89.1426C42.295 84.1898 40.9994 79.8571 40.9994 76.1425C40.9994 74.1689 41.4738 72.3018 42.4223 70.5424C43.3698 68.7812 44.6073 67.2034 46.1357 65.812C47.6648 64.4193 49.3573 63.0267 51.214 61.6339C53.0705 60.24 54.9272 58.7408 56.786 57.136C58.6427 55.5305 60.3358 53.8275 61.864 52.0285C63.3925 50.2291 64.6298 48.0528 65.5787 45.4992C66.5262 42.9455 67.0006 40.1594 67.0006 37.1422C67.0006 33.3503 66.4678 29.7909 65.4047 26.4633C64.3405 23.136 62.9379 20.2241 61.1975 17.7289C59.457 15.2337 57.2617 12.8635 54.6097 10.6204C51.9594 8.37619 49.281 6.44161 46.5724 4.81703C43.8635 3.19204 40.7684 1.58636 37.2867 0L37.3444 0.0585435L37.1704 0C39.7236 5.02925 41 9.36309 41 12.9995C41 14.9727 40.5261 16.8398 39.578 18.5997C38.6298 20.3601 37.392 21.9365 35.864 23.3298C34.3353 24.7224 32.6429 26.1153 30.7857 27.5085C28.928 28.9012 27.0707 30.4007 25.2137 32.0062C23.3566 33.6117 21.6641 35.3143 20.1355 37.1129C18.6075 38.9123 17.3697 41.0886 16.4214 43.6421C15.474 46.1959 14.9995 48.982 14.9995 51.9992C14.9995 55.7911 15.5303 59.3507 16.5944 62.6779C17.6588 66.0053 19.0616 68.918 20.8024 71.4127Z" fill="black"/>
<path d="M81.306 97.1228C80.9378 96.7563 80.5032 96.5734 80.0009 96.5734H1.9995C1.4966 96.5734 1.06139 96.7563 0.693863 97.1228C0.326137 97.4903 0.142578 97.9256 0.142578 98.4287V102.143C0.142578 102.647 0.326137 103.081 0.693863 103.449C1.06159 103.817 1.4966 104 1.9995 104H80.0009C80.5032 104 80.9378 103.817 81.306 103.449C81.6733 103.081 81.8577 102.647 81.8577 102.143V98.4287C81.8577 97.9256 81.6745 97.4903 81.306 97.1228Z" fill="black"/>
</svg>
