<svg width="30" height="30" viewBox="0 0 30 30" fill="none" xmlns="http://www.w3.org/2000/svg">
<path d="M28.8676 1.133C28.1123 0.377552 27.2073 0 26.1529 0H3.84795C2.79321 0 1.88843 0.377688 1.13298 1.133C0.377674 1.8881 0.00012207 2.79302 0.00012207 3.84755V26.1522C0.00012207 27.2066 0.377606 28.1118 1.13298 28.8669C1.88843 29.6222 2.79342 30 3.84795 30H26.1526C27.2068 30 28.1121 29.6222 28.8673 28.8669C29.6228 28.1118 30 27.2066 30 26.1522V3.84755C29.9999 2.79282 29.6228 1.88837 28.8676 1.133ZM10.7719 10.8104C11.9502 9.67125 13.3663 9.1014 15.02 9.1014C16.6864 9.1014 18.1089 9.67125 19.2874 10.8104C20.466 11.9498 21.0549 13.3268 21.0549 14.9414C21.0549 16.5557 20.466 17.9329 19.2874 19.0719C18.1089 20.2115 16.6869 20.7813 15.02 20.7813C13.3664 20.7813 11.9504 20.211 10.7719 19.0719C9.59339 17.9327 9.00418 16.5557 9.00418 14.9414C9.00418 13.3268 9.59339 11.9498 10.7719 10.8104ZM26.6021 25.3518C26.6021 25.6901 26.4846 25.9731 26.2504 26.2012C26.0156 26.429 25.736 26.5429 25.4102 26.5429H4.53163C4.19314 26.5429 3.90972 26.429 3.68206 26.2012C3.45405 25.9736 3.34015 25.6901 3.34015 25.3518V12.6951H6.09397C5.83367 13.5155 5.70349 14.3685 5.70349 15.2537C5.70349 17.7543 6.61484 19.8861 8.43775 21.6508C10.2609 23.4148 12.4548 24.2972 15.0199 24.2972C16.7126 24.2972 18.275 23.8934 19.7078 23.0861C21.1401 22.2784 22.2722 21.1817 23.1061 19.7948C23.9395 18.408 24.3562 16.8943 24.3562 15.2538C24.3562 14.3686 24.2256 13.5158 23.9653 12.6951H26.6022V25.3519H26.6021V25.3518ZM26.6021 7.90991C26.6021 8.28753 26.4719 8.60659 26.2111 8.86696C25.9508 9.12753 25.6319 9.25764 25.2541 9.25764H21.8558C21.4784 9.25764 21.159 9.12746 20.8987 8.86696C20.6384 8.60659 20.5083 8.28753 20.5083 7.90991V4.68755C20.5083 4.32293 20.6384 4.00722 20.8987 3.74022C21.1591 3.47335 21.4784 3.33975 21.8558 3.33975H25.2541C25.6319 3.33975 25.9508 3.47328 26.2111 3.74022C26.4719 4.00722 26.6021 4.32293 26.6021 4.68755V7.90991Z" fill="white"/>
</svg>
