<svg width="104" height="104" viewBox="0 0 104 104" fill="none" xmlns="http://www.w3.org/2000/svg">
<path d="M102.533 75.0921L73.1157 52.0007L102.532 28.9053C103.615 28.1326 104.098 27.0503 103.983 25.6566C103.789 24.3036 103.11 23.3167 101.95 22.6977L94.5239 18.9847C94.0209 18.7138 93.4606 18.5785 92.8416 18.5785C92.1852 18.5785 91.5849 18.7331 91.0437 19.042L51.01 41.4965L44.6279 37.6675C44.3182 37.513 44.0861 37.4167 43.9314 37.3775C44.4734 35.4828 44.6665 33.6061 44.5118 31.7497C44.2412 28.7713 43.1582 25.9086 41.263 23.1627C39.3682 20.4168 36.8153 18.0375 33.6047 16.0262C28.4988 12.7768 23.1419 11.1526 17.5333 11.1526C12.2344 11.1526 7.94054 12.6811 4.65286 15.7367C2.98992 17.2447 1.76146 19.0428 0.9687 21.1323C0.175536 23.2212 -0.123602 25.407 0.0694561 27.6884C0.339941 30.6279 1.4231 33.4718 3.31812 36.2177C5.21293 38.9644 7.74667 41.363 10.9187 43.4125C16.024 46.6619 21.401 48.2865 27.048 48.2865C30.2585 48.2865 33.1787 47.6874 35.8088 46.488C36.1561 46.9907 36.5822 47.4167 37.085 47.7648L44.1637 52.0001L37.085 56.2342C36.5822 56.5835 36.1569 57.0088 35.8088 57.511C33.1787 56.3122 30.2585 55.7125 27.048 55.7125C21.401 55.7125 16.024 57.3384 10.9187 60.5869C7.74687 62.637 5.21395 65.0364 3.31812 67.7827C1.4231 70.529 0.339941 73.3712 0.0694561 76.3116C-0.355881 81.07 1.17233 85.0728 4.65347 88.322C7.97976 91.339 12.2732 92.8475 17.5339 92.8475C23.1427 92.8475 28.4994 91.2222 33.6053 87.9731C36.8151 85.9228 39.3688 83.5362 41.2636 80.8072C43.1588 78.0796 44.2418 75.2284 44.5125 72.249C44.6671 70.3937 44.4742 68.5159 43.9321 66.6215C44.0869 66.5827 44.3188 66.4868 44.6285 66.3323L51.0106 62.5016L91.0445 84.9549C91.5855 85.265 92.1856 85.4193 92.843 85.4193C93.462 85.4193 94.0219 85.2845 94.5245 85.0132L101.952 81.2996C103.112 80.6806 103.789 79.6946 103.983 78.3411C104.099 76.9487 103.615 75.8674 102.533 75.0921ZM33.6047 36.9145C32.0962 38.3074 29.9108 39.004 27.048 39.004C23.1795 39.004 19.4665 37.8623 15.9079 35.5806C12.7751 33.608 10.725 31.3449 9.75813 28.7919C8.79101 26.2396 9.19684 24.1501 10.9766 22.5256C12.4857 21.1338 14.6712 20.4369 17.5333 20.4369C21.4018 20.4369 25.1148 21.5788 28.6734 23.8603C31.806 25.833 33.8561 28.0956 34.8232 30.6487C35.7901 33.2015 35.3843 35.2904 33.6047 36.9145ZM34.823 73.3519C33.8558 75.9043 31.8058 78.1672 28.6732 80.1408C25.1146 82.422 21.4016 83.5631 17.5331 83.5639C14.6709 83.5639 12.4855 82.867 10.9764 81.4748C9.19684 79.8502 8.79101 77.7612 9.75792 75.2073C10.7248 72.6551 12.7751 70.3934 15.9077 68.4198C19.4663 66.1386 23.1793 64.9968 27.0478 64.9968C29.9099 64.9968 32.0954 65.6938 33.6045 67.0859C35.3843 68.7104 35.7901 70.7997 34.823 73.3519ZM39.0005 44.5736L39.5218 44.053C39.561 44.0148 39.6185 43.966 39.6964 43.9087C39.774 43.8502 39.8514 43.7825 39.9284 43.7055C40.1221 43.55 40.3544 43.3182 40.6249 43.0083C40.8958 42.6992 41.0894 42.4864 41.2053 42.3701L42.7136 40.8619L47.2976 43.5886L46.4849 44.0522C45.2087 44.8254 44.5708 45.9086 44.5708 47.3008V47.939L39.0005 44.5736ZM51.997 57.5701L42.7127 63.1391L41.2042 61.6308C41.0498 61.4764 40.837 61.2441 40.5661 60.9338C40.2957 60.6237 40.0829 60.3914 39.928 60.237C39.735 60.0819 39.5998 59.9657 39.5222 59.8893L39.0003 59.4261L48.284 53.8563V47.2996L92.8428 22.2931L100.269 26.0067L57.5654 59.4261L51.997 57.5701ZM92.8434 81.7071L59.0753 62.7337C59.5025 62.5795 59.7541 62.4445 59.8307 62.3277L70.101 54.3217L100.271 77.9932L92.8434 81.7071Z" fill="black"/>
<path d="M55.7102 48.2869C54.7047 48.2869 53.8347 48.6549 53.0995 49.3899C52.3646 50.1244 51.997 50.995 51.997 52.0007C51.997 53.0058 52.3646 53.8766 53.0995 54.611C53.8345 55.3469 54.7045 55.7141 55.7102 55.7141C56.716 55.7141 57.5857 55.3469 58.3216 54.611C59.056 53.8768 59.4232 53.006 59.4232 52.0007C59.4232 50.9952 59.056 50.1244 58.3216 49.3899C57.5857 48.6549 56.7158 48.2869 55.7102 48.2869Z" fill="black"/>
</svg>
