<svg width="15" height="15" viewBox="0 0 15 15" fill="none" xmlns="http://www.w3.org/2000/svg">
<g clip-path="url(#clip0)">
<path d="M13.9944 3.73528C13.3237 2.58627 12.4139 1.67652 11.2649 1.00586C10.1156 0.335243 8.86107 0 7.50022 0C6.13952 0 4.88457 0.335243 3.73552 1.00586C2.58641 1.67642 1.67666 2.58617 1.00597 3.73528C0.335243 4.88447 0 6.13941 0 7.50002C0 8.86069 0.335345 10.1154 1.00586 11.2647C1.67652 12.4137 2.58627 13.3234 3.73539 13.9942C4.88457 14.6648 6.13941 15 7.50009 15C8.86076 15 10.1157 14.6648 11.2649 13.9942C12.4139 13.3237 13.3236 12.4137 13.9942 11.2647C14.6648 10.1155 15 8.86062 15 7.50002C15 6.13928 14.6648 4.8843 13.9944 3.73528Z" fill="black"/>
</g>
<defs>
<clipPath id="clip0">
<rect width="15" height="15" fill="white"/>
</clipPath>
</defs>
</svg>
