<svg width="104" height="104" viewBox="0 0 104 104" fill="none" xmlns="http://www.w3.org/2000/svg">
<path d="M97.0274 25.8985C92.3773 17.932 86.0697 11.6244 78.103 6.97449C70.1344 2.32484 61.4358 0.000488281 52.0015 0.000488281C42.5673 0.000488281 33.8664 2.32484 25.8996 6.97449C17.9324 11.6237 11.6248 17.9313 6.97471 25.8985C2.32435 33.8661 0 42.5671 0 52.0006C0 61.4346 2.32506 70.1341 6.974 78.1023C11.6239 86.0688 17.9315 92.3764 25.8987 97.0267C33.8664 101.676 42.5666 104 52.0006 104C61.4346 104 70.1358 101.675 78.103 97.0267C86.0697 92.3766 92.3771 86.0688 97.0267 78.1023C101.676 70.1341 104 61.4341 104 52.0006C104 42.5661 101.676 33.8649 97.0274 25.8985ZM91.8814 68.8258C89.5789 74.175 86.499 78.7798 82.6397 82.6388C78.781 86.4971 74.1759 89.5779 68.8267 91.8795C63.4777 94.1828 57.8697 95.3335 52.0015 95.3335C46.1334 95.3335 40.5254 94.1811 35.1759 91.8795C29.8271 89.5779 25.2223 86.4971 21.3629 82.6388C17.5046 78.7791 14.424 74.1755 12.121 68.8258C9.8189 63.4775 8.66752 57.8678 8.66752 52.0006C8.66752 46.1325 9.81866 40.5245 12.121 35.175C14.423 29.8262 17.5037 25.2221 21.3629 21.3619C25.2223 17.5037 29.8271 14.4228 35.1759 12.12C40.5247 9.81868 46.1336 8.66753 52.0015 8.66753C57.8687 8.66753 63.4786 9.81797 68.8267 12.12C74.1759 14.4221 78.7801 17.503 82.6397 21.3619C86.4987 25.2214 89.5789 29.8255 91.8814 35.175C94.184 40.5238 95.3353 46.1317 95.3353 52.0006C95.3363 57.8688 94.184 63.4782 91.8814 68.8258Z" fill="black"/>
<path d="M74.0063 58.7035C72.8782 58.3402 71.7728 58.4341 70.6886 58.9748C69.6043 59.5155 68.8821 60.3738 68.5233 61.5477C67.3959 65.1593 65.3071 68.0825 62.2596 70.316C59.2136 72.5503 55.7936 73.668 52.0015 73.668C48.2104 73.668 44.7915 72.5495 41.7441 70.316C38.6974 68.0818 36.6097 65.1593 35.4811 61.5477C35.1204 60.374 34.4089 59.5155 33.3486 58.9748C32.2878 58.4343 31.1936 58.3402 30.065 58.7035C28.8913 59.064 28.034 59.775 27.4919 60.8348C26.9502 61.8947 26.8596 62.992 27.2213 64.1185C28.8906 69.582 32.0054 73.9824 36.5644 77.323C41.124 80.6635 46.2697 82.3319 52.0022 82.3319C57.734 82.3319 62.8812 80.6635 67.4405 77.323C71.9967 73.9808 75.1117 69.582 76.7818 64.1185C77.1453 62.992 77.0545 61.8947 76.5124 60.8348C75.9686 59.775 75.1328 59.0659 74.0063 58.7035Z" fill="black"/>
<path d="M34.6675 43.3345C37.0592 43.3345 39.102 42.4864 40.7948 40.7948C42.4879 39.1027 43.3343 37.0599 43.3343 34.6675C43.3343 32.2748 42.4879 30.2329 40.7948 28.5401C39.1018 26.8473 37.0592 26.0004 34.6675 26.0004C32.275 26.0004 30.2322 26.8473 28.5394 28.5401C26.8473 30.2332 26.0002 32.2751 26.0002 34.6675C26.0002 37.0599 26.8463 39.1027 28.5394 40.7948C30.2329 42.4872 32.2748 43.3345 34.6675 43.3345Z" fill="black"/>
<path d="M69.3342 26C66.9415 26 64.898 26.8469 63.2049 28.5397C61.5135 30.2327 60.6655 32.2746 60.6655 34.667C60.6655 37.0595 61.5135 39.1023 63.2049 40.7944C64.898 42.487 66.9415 43.3341 69.3342 43.3341C71.7249 43.3341 73.7685 42.486 75.4615 40.7944C77.1546 39.1023 78.001 37.0595 78.001 34.667C78.001 32.2744 77.1546 30.2325 75.4615 28.5397C73.7685 26.8469 71.7249 26 69.3342 26Z" fill="black"/>
</svg>
