<svg width="17" height="15" viewBox="0 0 17 15" fill="none" xmlns="http://www.w3.org/2000/svg">
<path d="M16.9638 11.6222C16.9158 11.4944 16.6098 11.3061 16.0462 11.0577C15.8936 10.9794 15.676 10.873 15.3945 10.7381C15.1128 10.6031 14.8571 10.4788 14.6278 10.3651C14.3981 10.2515 14.1828 10.1414 13.9818 10.035C13.9496 10.0137 13.849 9.95167 13.68 9.84846C13.5108 9.74555 13.3681 9.66917 13.2511 9.61935C13.1344 9.56984 13.0197 9.54491 12.907 9.54491C12.746 9.54491 12.5449 9.64618 12.3035 9.84846C12.0622 10.051 11.8407 10.271 11.6396 10.5091C11.4384 10.7472 11.225 10.9672 10.9999 11.1696C10.7744 11.3721 10.5891 11.4732 10.4444 11.4732C10.3717 11.4732 10.2811 11.4554 10.1726 11.4201C10.0641 11.3846 9.9815 11.3542 9.92483 11.3297C9.86867 11.3047 9.77229 11.2551 9.63535 11.1803C9.49816 11.1057 9.42186 11.0648 9.40579 11.0577C8.30305 10.5178 7.35729 9.89991 6.56834 9.20413C5.77965 8.50793 5.07923 7.67356 4.46748 6.7005C4.45945 6.68629 4.41305 6.61878 4.3286 6.49811C4.24401 6.37733 4.18764 6.29222 4.15947 6.24237C4.13131 6.1927 4.0971 6.11987 4.05692 6.02401C4.01674 5.92815 3.99657 5.8483 3.99657 5.78431C3.99657 5.65654 4.1113 5.49311 4.34073 5.29423C4.57012 5.09546 4.81973 4.90718 5.08929 4.72975C5.35907 4.55232 5.60842 4.35695 5.83789 4.14397C6.06728 3.93087 6.18197 3.7534 6.18197 3.61139C6.18197 3.51202 6.1538 3.41072 6.09752 3.30777C6.04118 3.2046 5.95466 3.0787 5.83789 2.92948C5.72108 2.78034 5.65067 2.69165 5.62647 2.6631C5.50586 2.48568 5.38123 2.29571 5.25228 2.09329C5.12334 1.8909 4.98259 1.6653 4.82958 1.41676C4.6767 1.16832 4.55604 0.976495 4.4674 0.841569C4.18582 0.344516 3.97255 0.0745151 3.82761 0.0320523C3.77124 0.0107463 3.68666 0 3.57408 0C3.35662 0 3.07293 0.0354478 2.7228 0.106567C2.37254 0.177575 2.09693 0.252053 1.89566 0.330299C1.49318 0.479367 1.06659 0.912577 0.615761 1.62978C0.20524 2.29724 0 2.95788 0 3.6112C0 3.80281 0.014083 3.98923 0.042249 4.1705C0.070415 4.35158 0.120742 4.55579 0.193271 4.78311C0.265674 5.01035 0.324078 5.17915 0.36823 5.28908C0.412425 5.39908 0.494935 5.59613 0.615719 5.88031C0.736334 6.16442 0.808863 6.33834 0.833011 6.40225C1.11471 7.0983 1.44877 7.71968 1.8351 8.26659C2.47074 9.17562 3.33818 10.1151 4.43691 11.0845C5.53568 12.0539 6.60023 12.8192 7.63062 13.3803C8.2504 13.7211 8.95493 14.0158 9.7437 14.2646C9.81619 14.2857 10.0133 14.3496 10.3352 14.4564C10.6572 14.5629 10.8806 14.6357 11.0053 14.6747C11.13 14.7138 11.3214 14.7654 11.5787 14.8294C11.8366 14.8934 12.0679 14.9378 12.2731 14.9628C12.4785 14.9873 12.6898 15 12.907 15C13.6474 15 14.3962 14.8188 15.1529 14.4566C15.9657 14.059 16.4566 13.6826 16.6256 13.3272C16.7145 13.1498 16.7987 12.9066 16.8792 12.5975C16.9599 12.2886 17 12.0384 17 11.8466C17.0002 11.7468 16.9881 11.6724 16.9638 11.6222Z" fill="black"/>
</svg>
