<svg width="104" height="104" viewBox="0 0 104 104" fill="none" xmlns="http://www.w3.org/2000/svg">
<path d="M70.5283 61.1835L56.0278 50.3082V28.155C56.0278 25.9275 54.2273 24.127 51.9998 24.127C49.7723 24.127 47.9718 25.9275 47.9718 28.155V52.3224C47.9718 53.5911 48.568 54.7875 49.583 55.5448L65.6945 67.6285C66.4194 68.1722 67.2655 68.4341 68.1072 68.4341C69.3357 68.4341 70.5441 67.8822 71.3336 66.8188C72.6712 65.0423 72.3086 62.5168 70.5283 61.1835Z" fill="black"/>
<path d="M52 0C23.3255 0 0 23.3255 0 52C0 80.6745 23.3255 104 52 104C80.6745 104 104 80.6745 104 52C104 23.3255 80.6745 0 52 0ZM52 95.9443C27.7723 95.9443 8.05573 76.2277 8.05573 52C8.05573 27.7723 27.7723 8.05573 52 8.05573C76.2318 8.05573 95.9443 27.7723 95.9443 52C95.9443 76.2277 76.2277 95.9443 52 95.9443Z" fill="black"/>
</svg>
