<svg width="30" height="14" viewBox="0 0 30 14" fill="none" xmlns="http://www.w3.org/2000/svg">
<g clip-path="url(#clip0)">
<path d="M29.841 11.8998C29.8046 11.8216 29.7708 11.7566 29.7393 11.7046C29.2188 10.7672 28.2242 9.61652 26.7559 8.25235L26.7249 8.22111L26.7094 8.20579L26.6937 8.19009H26.6779C26.0116 7.55487 25.5896 7.12776 25.4129 6.90909C25.0896 6.49253 25.0171 6.07089 25.1938 5.64367C25.3187 5.32089 25.7876 4.63922 26.5996 3.59773C27.0267 3.04577 27.365 2.6034 27.6148 2.27011C29.4164 -0.12504 30.1975 -1.65557 29.9579 -2.32209L29.8648 -2.47785C29.8023 -2.57162 29.6409 -2.6574 29.3809 -2.73563C29.1202 -2.8137 28.7871 -2.82661 28.3809 -2.77459L23.8825 -2.74351C23.8096 -2.76933 23.7056 -2.76693 23.57 -2.73563C23.4346 -2.70434 23.3669 -2.68864 23.3669 -2.68864L23.2886 -2.64952L23.2265 -2.60253C23.1744 -2.57145 23.1171 -2.5168 23.0546 -2.43867C22.9924 -2.36082 22.9403 -2.26946 22.8987 -2.16535C22.409 -0.905352 21.8522 0.266128 21.2272 1.34903C20.8419 1.99476 20.4881 2.55438 20.1649 3.02821C19.8422 3.50188 19.5714 3.85087 19.3529 4.07457C19.1341 4.29849 18.9366 4.47788 18.7592 4.6134C18.5821 4.74897 18.4469 4.80625 18.3533 4.78529C18.2595 4.76434 18.1711 4.74355 18.0875 4.72276C17.9418 4.62899 17.8246 4.50146 17.7363 4.34007C17.6475 4.17868 17.5878 3.97555 17.5565 3.73083C17.5255 3.48596 17.5071 3.27533 17.5018 3.09824C17.497 2.92136 17.4992 2.67118 17.5098 2.3484C17.5206 2.02545 17.5255 1.80695 17.5255 1.69239C17.5255 1.29662 17.5332 0.867103 17.5487 0.40372C17.5644 -0.0596636 17.5772 -0.426814 17.5878 -0.697295C17.5984 -0.968048 17.6034 -1.2545 17.6034 -1.5565C17.6034 -1.85849 17.585 -2.09532 17.5487 -2.26722C17.5128 -2.43889 17.4577 -2.60554 17.3851 -2.76709C17.312 -2.92848 17.2051 -3.05333 17.0649 -3.14196C16.9243 -3.23048 16.7496 -3.30072 16.5416 -3.35291C15.9897 -3.47781 15.2868 -3.54538 14.4328 -3.55588C12.496 -3.57667 11.2516 -3.45161 10.6997 -3.18085C10.481 -3.06646 10.2831 -2.91016 10.1062 -2.71244C9.9187 -2.48326 9.89255 -2.3582 10.0279 -2.33763C10.6528 -2.24402 11.0952 -2.0201 11.3555 -1.66608L11.4493 -1.47848C11.5223 -1.34313 11.5952 -1.10351 11.6681 -0.759936C11.7409 -0.416364 11.7879 -0.0363029 11.8086 0.380031C11.8606 1.14032 11.8606 1.79114 11.8086 2.33253C11.7565 2.87415 11.7072 3.29579 11.6602 3.59778C11.6133 3.89978 11.543 4.14449 11.4493 4.33187C11.3555 4.5193 11.2931 4.63386 11.2618 4.67544C11.2306 4.71702 11.2045 4.74322 11.1838 4.75351C11.0485 4.80537 10.9077 4.83179 10.762 4.83179C10.6161 4.83179 10.4392 4.75881 10.231 4.61296C10.0228 4.46711 9.80677 4.26676 9.58285 4.0116C9.35892 3.75638 9.10639 3.39974 8.82513 2.94161C8.54409 2.48347 8.25249 1.94202 7.9505 1.31725L7.70065 0.864149C7.54445 0.572661 7.33109 0.14823 7.06033 -0.40876C6.78942 -0.965969 6.54996 -1.50496 6.34179 -2.02562C6.25858 -2.24429 6.13357 -2.41077 5.96698 -2.52533L5.8888 -2.57233C5.83683 -2.61391 5.7534 -2.65806 5.63894 -2.70511C5.52433 -2.7521 5.40474 -2.7858 5.27967 -2.80654L0.999858 -2.77546C0.562516 -2.77546 0.265775 -2.67638 0.109527 -2.4785L0.0469949 -2.3849C0.0157561 -2.33276 0 -2.24949 0 -2.13488C0 -2.02032 0.0312387 -1.87972 0.0937709 -1.71324C0.718545 -0.244853 1.39797 1.17128 2.13206 2.53539C2.86614 3.8995 3.50404 4.99833 4.04539 5.83089C4.58684 6.66405 5.13874 7.45038 5.70109 8.18949C6.26345 8.92888 6.63568 9.40271 6.81781 9.61088C7.00015 9.81943 7.14338 9.97535 7.24749 10.0795L7.63806 10.4543C7.88797 10.7042 8.25495 11.0036 8.73918 11.3524C9.22352 11.7014 9.75972 12.0449 10.3481 12.3836C10.9365 12.7218 11.6211 12.9977 12.4022 13.2112C13.1831 13.4248 13.9432 13.5105 14.6826 13.4692H16.4789C16.8433 13.4377 17.1193 13.3231 17.3069 13.1254L17.369 13.0471C17.4108 12.985 17.4499 12.8884 17.486 12.7585C17.5226 12.6283 17.5407 12.485 17.5407 12.329C17.5301 11.8813 17.5641 11.4778 17.6421 11.1186C17.7199 10.7595 17.8086 10.4887 17.9079 10.3064C18.0071 10.1242 18.119 9.97048 18.2436 9.84585C18.3684 9.72095 18.4574 9.64529 18.5096 9.61925C18.5614 9.59305 18.6028 9.57527 18.6341 9.5646C18.884 9.48133 19.1781 9.56197 19.5169 9.8069C19.8554 10.0516 20.1728 10.3538 20.4698 10.7129C20.7666 11.0723 21.1232 11.4756 21.5396 11.9233C21.9563 12.3711 22.3207 12.704 22.633 12.923L22.9453 13.1104C23.1538 13.2355 23.4246 13.3501 23.7578 13.4542C24.0905 13.5582 24.382 13.5843 24.6323 13.5322L28.6308 13.4699C29.0263 13.4699 29.334 13.4044 29.5523 13.2745C29.771 13.1443 29.901 13.0009 29.9429 12.8449C29.9847 12.6888 29.9869 12.5116 29.9508 12.3136C29.9138 12.116 29.8773 11.9779 29.841 11.8998Z" fill="white"/>
</g>
<defs>
<clipPath id="clip0">
<rect width="30" height="30" fill="white"/>
</clipPath>
</defs>
</svg>
