<svg width="30" height="30" viewBox="0 0 30 30" fill="none" xmlns="http://www.w3.org/2000/svg">
<g clip-path="url(#clip0)">
<path d="M28.35 1.65024C27.2501 0.550148 25.925 0 24.3757 0H5.62557C4.07624 0 2.75115 0.550148 1.65085 1.65024C0.550759 2.75054 0.000610352 4.07556 0.000610352 5.62496V24.3749C0.000610352 25.9242 0.550759 27.2493 1.65085 28.3496C2.75115 29.4499 4.07624 30.0001 5.62557 30.0001H24.3755C25.9248 30.0001 27.2499 29.4499 28.3497 28.3496C29.45 27.2493 30.0002 25.9242 30.0002 24.3749V5.62496C30.0001 4.07556 29.45 2.75033 28.35 1.65024ZM17.7156 4.33565H19.0242V9.64792C19.0242 9.96055 19.0303 10.1299 19.0434 10.1559C19.0565 10.3643 19.161 10.4684 19.3562 10.4684C19.6165 10.4684 19.8902 10.2667 20.1765 9.86306V4.33565H21.4851V11.5622H20.1765H20.176V10.7806C19.6422 11.3664 19.141 11.6597 18.6723 11.6597C18.2559 11.6597 17.9759 11.484 17.8324 11.1324C17.7542 10.8982 17.7156 10.54 17.7156 10.0581V4.33565V4.33565ZM12.7742 6.6795C12.7742 5.92439 12.9109 5.35783 13.1843 4.98034C13.5358 4.48561 14.0435 4.2381 14.7075 4.2381C15.3457 4.2381 15.8537 4.48581 16.2309 4.98034C16.5045 5.35789 16.6413 5.92439 16.6413 6.6795V9.21865C16.6413 9.99995 16.5045 10.5664 16.2309 10.9179C15.8537 11.4129 15.3457 11.6602 14.7075 11.6602C14.0435 11.6602 13.5358 11.4127 13.1843 10.9179C12.9109 10.5402 12.7742 9.97382 12.7742 9.21865V6.6795ZM9.25832 1.85519L10.2936 5.66403L11.2896 1.85519H12.7545L10.9966 7.63647H10.9969V11.5622H9.55159V7.63647C9.4082 6.92036 9.10878 5.89169 8.6531 4.55066C8.35367 3.65217 8.20386 3.20293 8.20386 3.20293L7.73491 1.85519H9.25832V1.85519ZM25.3525 25.4298C25.2223 25.9894 24.9456 26.4645 24.522 26.8556C24.0992 27.246 23.6079 27.474 23.0478 27.5394C21.2642 27.7344 18.5815 27.8322 15.0009 27.8322C11.4201 27.8322 8.73786 27.7343 6.95409 27.5394C6.39429 27.474 5.90284 27.246 5.47952 26.8556C5.05634 26.4645 4.77976 25.9894 4.64951 25.4298C4.38921 24.3358 4.25903 22.643 4.25903 20.3515C4.25903 18.0985 4.38921 16.4064 4.64951 15.2733C4.77983 14.7004 5.05641 14.2218 5.47952 13.8375C5.90284 13.4533 6.40072 13.2286 6.97372 13.1636C8.74429 12.968 11.4201 12.8705 15.0009 12.8705C18.5948 12.8705 21.2772 12.9683 23.0478 13.1636C23.6079 13.2288 24.102 13.4532 24.5318 13.8375C24.9616 14.2216 25.2419 14.7001 25.372 15.2733C25.619 16.354 25.7429 18.0465 25.7429 20.3515C25.7429 22.6429 25.6127 24.3355 25.3525 25.4298Z" fill="white"/>
<path d="M5.85931 16.7383H7.38279V24.9999H8.82808V16.7383H10.3906V15.3711H5.85931V16.7383Z" fill="white"/>
<path d="M13.008 23.3007C12.7215 23.7041 12.448 23.906 12.1877 23.906C12.0054 23.906 11.9077 23.8083 11.8947 23.6131C11.8816 23.5871 11.875 23.4179 11.875 23.1051V17.8315H10.586V23.4956C10.586 23.9905 10.6251 24.3421 10.7033 24.55C10.8204 24.9147 11.094 25.0968 11.5236 25.0968C12.0054 25.0968 12.5002 24.804 13.008 24.218V24.9995H14.3164V17.832H13.008V23.3007V23.3007Z" fill="white"/>
<path d="M18.0669 17.7342C17.5981 17.7342 17.1552 17.9945 16.739 18.5156V15.3711H15.4303V24.9999H16.739V24.2968C17.1683 24.8305 17.6115 25.0973 18.0669 25.0973C18.6009 25.0973 18.9457 24.8239 19.1016 24.2771C19.1929 24.0036 19.2383 23.5284 19.2383 22.8513V19.9999C19.2383 19.3097 19.1924 18.8279 19.1016 18.5545C18.9456 18.0076 18.6008 17.7342 18.0669 17.7342ZM17.9495 22.9492C17.9495 23.5871 17.7609 23.9057 17.383 23.9062C17.1621 23.9062 16.9469 23.8019 16.7385 23.5935V19.2184C16.9469 19.0106 17.162 18.9062 17.383 18.9062C17.7609 18.9062 17.9495 19.2314 17.9495 19.8825V22.9492Z" fill="white"/>
<path d="M22.8122 22.9394C22.8122 23.076 22.8089 23.1832 22.8029 23.2615C22.7965 23.3397 22.7929 23.3853 22.7929 23.3982C22.7149 23.7365 22.5195 23.9057 22.207 23.9057C21.7643 23.9057 21.5428 23.5737 21.5428 22.9098V21.6405H24.1405V20.1558C24.1405 19.4008 24.0041 18.841 23.7304 18.4763C23.3792 17.9816 22.8712 17.7339 22.207 17.7339C21.5428 17.7339 21.0222 17.9815 20.6443 18.4763C20.384 18.8279 20.2538 19.3881 20.2538 20.1558V22.6754C20.2538 23.4437 20.3905 24.0038 20.664 24.3554C21.0418 24.8501 21.569 25.0978 22.2463 25.0978C22.9365 25.0978 23.4571 24.8375 23.809 24.3164C23.9651 24.0818 24.0632 23.8215 24.1021 23.5351C24.1279 23.3528 24.1409 23.0728 24.1409 22.6952V22.5199V22.5194H22.8126V22.9394H22.8122V22.9394ZM21.5433 19.9021C21.5433 19.2381 21.7582 18.9062 22.1879 18.9062C22.6177 18.9062 22.8323 19.2381 22.8323 19.9021V20.5664H21.5433V19.9021Z" fill="white"/>
<path d="M14.7071 10.4682C15.1238 10.4682 15.3321 10.1364 15.3321 9.4723V6.42534C15.3321 5.74843 15.1238 5.40967 14.7071 5.40967C14.2905 5.40967 14.0822 5.74843 14.0822 6.42534V9.4723C14.0822 10.1361 14.2905 10.4682 14.7071 10.4682Z" fill="white"/>
</g>
<defs>
<clipPath id="clip0">
<rect width="30" height="30" fill="white"/>
</clipPath>
</defs>
</svg>
